<svg xmlns="http://www.w3.org/2000/svg" width="15.886" height="17.674" viewBox="0 0 15.886 17.674">
    <g id="noun-offers-1253195" transform="translate(-9.115 -4.528)">
        <path id="Path_6181" data-name="Path 6181"
            d="M23.927,8.156l-5.8-3.346a2.183,2.183,0,0,0-2.148,0l-5.8,3.346a2.153,2.153,0,0,0-1.074,1.86v6.692a2.154,2.154,0,0,0,1.074,1.86l5.8,3.346a2.147,2.147,0,0,0,2.148,0l5.8-3.346A2.154,2.154,0,0,0,25,16.708V10.016A2.153,2.153,0,0,0,23.927,8.156Zm.1,8.552a1.18,1.18,0,0,1-.588,1.019l-5.8,3.346a1.194,1.194,0,0,1-1.176,0l-5.8-3.346a1.18,1.18,0,0,1-.588-1.019V10.016A1.179,1.179,0,0,1,10.675,9l5.8-3.346a1.176,1.176,0,0,1,1.176,0L23.441,9a1.18,1.18,0,0,1,.588,1.019v6.692Zm-3.9-6.335-6.741,5.208a.486.486,0,0,0,.594.769l6.741-5.208a.486.486,0,0,0-.594-.769Zm-4.5,1.885a1.7,1.7,0,1,0-1.2-.5A1.689,1.689,0,0,0,15.628,12.258Zm2.86,2.207a1.7,1.7,0,1,0,1.2.5A1.689,1.689,0,0,0,18.488,14.465Z"
            fill="#fff" />
    </g>
</svg>
