<?xml version="1.0" encoding="utf-8"?><!-- Uploaded to: SVG Repo, www.svgrepo.com, Generator: SVG Repo Mixer Tools -->
<svg fill="#000000" width="800px" height="800px" viewBox="0 0 32 32" version="1.1"
    xmlns="http://www.w3.org/2000/svg">
    <title>bullhorn</title>
    <path
        d="M26.352 2.338c-0.102-0.055-0.223-0.088-0.352-0.088-0.156 0-0.302 0.048-0.422 0.13l0.003-0.002c-6.131 4.134-12.979 6.125-23.633 6.874-0.391 0.028-0.697 0.352-0.697 0.748v0 12c0 0 0 0.001 0 0.001 0 0.399 0.312 0.725 0.706 0.747l0.002 0c0.794 0.044 1.536 0.114 2.292 0.177v7.075c0 0.414 0.336 0.75 0.75 0.75h5c0.414-0 0.75-0.336 0.75-0.75v0-6.208c5.61 1.036 10.601 3.075 15.007 5.937l-0.159-0.097c0.114 0.073 0.253 0.117 0.402 0.117 0 0 0 0 0.001 0h-0c0.132-0 0.257-0.034 0.365-0.094l-0.004 0.002c0.233-0.131 0.389-0.376 0.389-0.658v0-26c0-0 0-0.001 0-0.001 0-0.285-0.16-0.533-0.394-0.659l-0.004-0.002zM2.75 10.697c3.215-0.237 6.126-0.626 8.982-1.172l-0.482 0.077v12.752q-0.474-0.093-0.957-0.178c-0.086-0.038-0.187-0.060-0.292-0.060-0 0-0 0-0.001 0h0l-0.013 0.003q-2.316-0.394-4.875-0.629c-0.032-0.010-0.070-0.017-0.108-0.022l-0.003-0c-0.016 0-0.030 0.008-0.046 0.009-0.727-0.066-1.443-0.137-2.204-0.185zM9.25 29.25h-3.5v-6.2c1.213 0.126 2.375 0.282 3.5 0.464zM25.25 27.656c-3.597-2.203-7.774-3.926-12.22-4.939l-0.28-0.054v-13.348c4.722-0.977 8.909-2.689 12.662-5.030l-0.162 0.094zM30 11.25c-0.414 0-0.75 0.336-0.75 0.75v0 8c0 0.414 0.336 0.75 0.75 0.75s0.75-0.336 0.75-0.75v0-8c-0-0.414-0.336-0.75-0.75-0.75v0z" />
</svg>