<svg xmlns="http://www.w3.org/2000/svg" width="65.785" height="65.549" viewBox="0 0 65.785 65.549">
    <g id="Group_158" data-name="Group 158" transform="translate(-520.782 -2161.219)">
        <path id="Path_883" data-name="Path 883"
            d="M566.6,2202.861c0-1.243-.014-2.486.006-3.729a1.2,1.2,0,0,1,1.047-1.141c.4-.056.786-.234,1.195-.307a16.468,16.468,0,0,1,2.031-.273c.421-.023.843-.076,1.266-.061a15.3,15.3,0,0,1,4.886.985,13.022,13.022,0,0,1,2.37,1.124,15.218,15.218,0,0,1,5.45,5.744,14.438,14.438,0,0,1,1.377,3.919,11.937,11.937,0,0,1,.323,3.325,18.086,18.086,0,0,1-.585,3.631,14.633,14.633,0,0,1-5.428,7.784,13.185,13.185,0,0,1-1.919,1.214,11,11,0,0,1-2.545.957c-.346.068-.677.262-1.031.345a15.882,15.882,0,0,1-3.861.374,13.206,13.206,0,0,1-3.271-.508,14.9,14.9,0,0,1-2.844-1.069,13.749,13.749,0,0,1-2.685-1.794,11.91,11.91,0,0,1-1.578-1.511,17.556,17.556,0,0,1-2.3-3.479,17.037,17.037,0,0,1-1.212-3.609,15.057,15.057,0,0,1-.217-4.146,11.217,11.217,0,0,1,.508-2.618,1.392,1.392,0,0,1,1.5-1.164c2.385.01,4.769,0,7.154.009.27,0,.37-.044.365-.347-.02-1.218-.008-2.437-.008-3.655Zm16.8,13.581a1.791,1.791,0,0,1,.039-.239,5.623,5.623,0,0,0,.342-1.228c.1-.019.168-.048.056-.147.136-.329.078-.7.231-1.027.07-.049.066-.1-.005-.141-.069-.224.069-.42.085-.635a17.644,17.644,0,0,0,0-1.8,8.985,8.985,0,0,0-.41-2.572,12.374,12.374,0,0,0-3.328-5.5,12.9,12.9,0,0,0-4.6-2.8,13.15,13.15,0,0,0-3.754-.685,15.23,15.23,0,0,0-2.647.159c-.321.045-.488.129-.483.541.031,2.424.016,4.849.014,7.273a1.828,1.828,0,0,1-.162.863,1.346,1.346,0,0,1-1.327.686q-2.823-.006-5.648,0h-1.87c-.148,0-.28-.017-.317.2a13.276,13.276,0,0,0-.236,2.03,14.141,14.141,0,0,0,.185,3.059,13.245,13.245,0,0,0,1.1,3.09,12.191,12.191,0,0,0,2.863,3.706,12.717,12.717,0,0,0,4.587,2.6,11.764,11.764,0,0,0,5.408.392,12.039,12.039,0,0,0,4.468-1.529,11.747,11.747,0,0,0,4.757-4.92l.058-.081c.006-.223.207-.365.24-.577l.054-.078c0-.167.18-.263.168-.433C583.4,2216.641,583.4,2216.541,583.4,2216.442Z"
            fill="#02445c" />
        <path id="Path_884" data-name="Path 884"
            d="M578.332,2189.146c-.862.3-1.7.662-2.587.907a14.54,14.54,0,0,1-2.84.542,13.237,13.237,0,0,1-5.539-.683,1.224,1.224,0,0,1-.773-1.207q-.012-3.62,0-7.239c0-.279-.06-.361-.352-.359-2.287.014-4.575-.024-6.861.02-1.311.025-1.617-.466-1.889-1.582a18.4,18.4,0,0,1-.43-2.307,17.337,17.337,0,0,1-.018-1.826c.077-.049.079-.1,0-.149a13.685,13.685,0,0,1,1.118-5.058,16.712,16.712,0,0,1,2.68-4.165c.19-.234.422-.435.634-.651a.059.059,0,0,0,.045-.043,9.9,9.9,0,0,1,1.315-1.128l.081-.053a8.9,8.9,0,0,1,1.089-.747l.084-.051.282-.169.085-.051a15.168,15.168,0,0,1,4.118-1.562,12.594,12.594,0,0,1,3.5-.352,14.943,14.943,0,0,1,3.181.463,15.321,15.321,0,0,1,4.095,1.626,13.862,13.862,0,0,1,2.935,2.3,14.84,14.84,0,0,1,3.289,5.181,17.09,17.09,0,0,1,.836,3.55,11.078,11.078,0,0,1,.012,3.118c-.073.457-.14.915-.243,1.365a14.684,14.684,0,0,1-1.964,5,14.938,14.938,0,0,1-2.826,3.225c-.731.611-1.525,1.1-2.3,1.638a5.081,5.081,0,0,0-.7.387Zm1.089-3.5.084-.056a12.694,12.694,0,0,0,2.152-2.211.124.124,0,0,0,.129-.127,16.866,16.866,0,0,0,1.349-2.4,13.644,13.644,0,0,0,1-3.869,11.013,11.013,0,0,0-.01-2.245,11.776,11.776,0,0,0-.192-1.382,10.393,10.393,0,0,0-.918-2.711,11.483,11.483,0,0,0-2.751-3.752c-.48-.415-1-.771-1.495-1.159l-.086-.056-.135-.093-.085-.053a14.4,14.4,0,0,0-1.923-1.037,8.619,8.619,0,0,0-2.3-.658,14.052,14.052,0,0,0-3.43-.221,11.584,11.584,0,0,0-3.677.825,11.192,11.192,0,0,0-2.768,1.6.089.089,0,0,0-.053.039c-.115.163-.322.188-.466.314a13.2,13.2,0,0,0-3.03,3.766,11.435,11.435,0,0,0-1.437,5.256,13.861,13.861,0,0,0,.166,2.848c.062.315.152.516.568.512,2.4-.024,4.79-.014,7.185-.01.624,0,1.217.084,1.517.75a1.768,1.768,0,0,1,.124.746q0,3.855,0,7.709l.1.072a9.728,9.728,0,0,0,1.847.231,15.616,15.616,0,0,0,2.7-.084,11.563,11.563,0,0,0,2.577-.707,13.732,13.732,0,0,0,2.976-1.627l.079-.051Z"
            fill="#02445c" />
        <path id="Path_885" data-name="Path 885"
            d="M525.051,2201.693a15.18,15.18,0,0,1,1.9-1.636l.083-.051.141-.1.079-.048.135-.095.085-.053.5-.313.082-.048.723-.39.085-.05a15.342,15.342,0,0,1,4.025-1.339,12.549,12.549,0,0,1,2.361-.209.347.347,0,0,0,.588,0,12.627,12.627,0,0,1,2.641.291c.018.1.044.175.149.061a5.2,5.2,0,0,1,1.474.41c.575.258.644.811.647,1.347q.018,3.469,0,6.941c0,.345.051.463.44.459,2.3-.023,4.595-.007,6.892-.017a3.32,3.32,0,0,1,.751.1,1.11,1.11,0,0,1,.8.766,10.315,10.315,0,0,1,.5,2.091,16.582,16.582,0,0,1,.156,2.271,15.47,15.47,0,0,1-.821,4.717,13.461,13.461,0,0,1-2.988,5.1c-.14.151-.264.315-.4.473a.06.06,0,0,0-.042.044,18.517,18.517,0,0,1-2.492,1.968,17.546,17.546,0,0,1-2.356,1.214,16.965,16.965,0,0,1-2.97.906,7.292,7.292,0,0,1-2.96.187c-.151-.029-.291.08-.456.072a15,15,0,0,1-2.054-.29,16.883,16.883,0,0,1-4.185-1.479c-.56-.271-1.074-.636-1.609-.959,0-.118-.058-.1-.13-.058l-.163-.176c-.035-.1-.043-.227-.181-.261-.183.115-.218-.059-.258-.153-.074-.176-.169-.3-.377-.288h-.059a9.956,9.956,0,0,1-1.9-2.09,15.015,15.015,0,0,1-1.955-3.312c-.223-.565-.376-1.154-.545-1.738-.192-.663-.309-1.332-.456-2a9.341,9.341,0,0,1-.14-2.306,14.125,14.125,0,0,1,2.089-7.084c.485-.792,1.073-1.508,1.589-2.275.141-.21.392-.328.529-.55A.056.056,0,0,0,525.051,2201.693Zm13.212-1.658c-.119-.008-.2-.1-.311-.139a6.418,6.418,0,0,0-1.565-.193,11.746,11.746,0,0,0-5.323.775,14.632,14.632,0,0,0-2.522,1.338,11.884,11.884,0,0,0-3.281,3.339,11.543,11.543,0,0,0-2.095,5.579,12.384,12.384,0,0,0,.317,4.269,14.307,14.307,0,0,0,1.075,2.772,11.318,11.318,0,0,0,2.248,3.05,12.668,12.668,0,0,0,3.582,2.5,12.835,12.835,0,0,0,4.423,1.076,11.932,11.932,0,0,0,7.236-1.825,12.829,12.829,0,0,0,2.818-2.361,11.366,11.366,0,0,0,2.29-3.813,12.738,12.738,0,0,0,.746-3.283,13.867,13.867,0,0,0-.178-3.624c-.033-.184-.111-.357-.373-.3a5.594,5.594,0,0,1-1.206,0c-2.152,0-4.3-.01-6.455,0a1.368,1.368,0,0,1-1.29-1.313c.028-2.193,0-4.386.019-6.579a5.965,5.965,0,0,0-.072-1.253c.043-.03.07-.079.018-.106C538.287,2199.909,538.274,2199.979,538.263,2200.035Z"
            fill="#02445c" />
        <path id="Path_886" data-name="Path 886"
            d="M521.97,2170.141a15.442,15.442,0,0,1,2.332-3.66,14.911,14.911,0,0,1,4.7-3.715,15.549,15.549,0,0,1,2.67-.98,12.474,12.474,0,0,1,3.938-.557,15.331,15.331,0,0,1,6.885,1.735,13.9,13.9,0,0,1,3.43,2.552,16.229,16.229,0,0,1,3.157,4.558,13.121,13.121,0,0,1,1.005,3.453,14.867,14.867,0,0,1,.207,2.769,16.281,16.281,0,0,1-.6,3.7c-.226.87-.67,1.117-1.562,1.119q-3.52.007-7.04-.005c-.267,0-.344.052-.342.333.013,2.339.006,4.679.008,7.019a1.416,1.416,0,0,1-1.25,1.6,16.092,16.092,0,0,1-5.332.544,12.623,12.623,0,0,1-3.558-.829,14.033,14.033,0,0,1-1.4-.532,19.616,19.616,0,0,1-1.955-1.14,15.231,15.231,0,0,1-4.41-4.725,12.389,12.389,0,0,1-1.586-3.757,20.916,20.916,0,0,1-.4-2.206,13.686,13.686,0,0,1,.013-3.186,16.394,16.394,0,0,1,.662-3.057c.186-.034.123-.181.134-.294l.09-.293.057-.071.092-.223Zm20.326-4.677a10.669,10.669,0,0,1-1.225-.61,10.468,10.468,0,0,0-2.021-.776,7.783,7.783,0,0,0-2.026-.4,2.936,2.936,0,0,1-1.526-.177.239.239,0,0,0-.18,0,3.492,3.492,0,0,1-1.135.147,7.476,7.476,0,0,0-.819.09,14.128,14.128,0,0,0-2.652.78,10.628,10.628,0,0,0-3.307,2.036,13,13,0,0,0-3.035,4,11.756,11.756,0,0,0-1.211,4.48,14.5,14.5,0,0,0,.046,2.29,10.828,10.828,0,0,0,.627,2.8,12.907,12.907,0,0,0,2.868,4.52,12.615,12.615,0,0,0,4.293,2.824,10.924,10.924,0,0,0,4.155.83,16.128,16.128,0,0,0,2.884-.222c.343-.063.384-.21.383-.5-.009-2.486.005-4.972-.011-7.458a1.335,1.335,0,0,1,1.344-1.347c2.52.007,5.039,0,7.558.008.272,0,.376-.089.428-.332a14.14,14.14,0,0,0,.211-1.889,11.722,11.722,0,0,0-.621-4.6,12.523,12.523,0,0,0-2.106-3.851,10.274,10.274,0,0,0-.892-1.014,22.038,22.038,0,0,0-1.954-1.552Z"
            fill="#02445c" />
        <path id="Path_887" data-name="Path 887" d="M535.842,2197.359a.347.347,0,0,1-.588,0Z"
            fill="#02445c" />
        <path id="Path_888" data-name="Path 888"
            d="M526.488,2223.531c.138.034.146.157.181.261C526.4,2223.849,526.573,2223.6,526.488,2223.531Z"
            fill="#02445c" />
        <path id="Path_889" data-name="Path 889"
            d="M521.678,2170.875c-.011.113.052.26-.134.294C521.537,2171.048,521.548,2170.935,521.678,2170.875Z"
            fill="#02445c" />
        <path id="Path_890" data-name="Path 890"
            d="M557.047,2175.263c.078.05.076.1,0,.149l-.127-.035Z" fill="#02445c" />
        <path id="Path_891" data-name="Path 891"
            d="M538.632,2197.711c-.105.114-.131.036-.149-.061C538.545,2197.64,538.6,2197.636,538.632,2197.711Z"
            fill="#02445c" />
        <path id="Path_892" data-name="Path 892"
            d="M526.832,2223.968c.072-.044.131-.06.13.058C526.91,2224.026,526.839,2224.067,526.832,2223.968Z"
            fill="#02445c" />
        <path id="Path_893" data-name="Path 893"
            d="M521.97,2170.141l-.053.147C521.9,2170.227,521.882,2170.165,521.97,2170.141Z"
            fill="#02445c" />
        <path id="Path_894" data-name="Path 894"
            d="M521.825,2170.511l-.057.071C521.748,2170.527,521.78,2170.514,521.825,2170.511Z"
            fill="#02445c" />
        <path id="Path_895" data-name="Path 895"
            d="M578.332,2189.146l.061-.059C578.4,2189.138,578.384,2189.158,578.332,2189.146Z"
            fill="#02445c" />
        <path id="Path_896" data-name="Path 896"
            d="M528.868,2198.91l-.085.05C528.8,2198.924,528.81,2198.877,528.868,2198.91Z"
            fill="#02445c" />
        <path id="Path_897" data-name="Path 897"
            d="M528.06,2199.35l-.082.048C527.994,2199.364,528,2199.316,528.06,2199.35Z"
            fill="#02445c" />
        <path id="Path_898" data-name="Path 898"
            d="M527.474,2199.711l-.085.053C527.405,2199.727,527.418,2199.684,527.474,2199.711Z"
            fill="#02445c" />
        <path id="Path_899" data-name="Path 899"
            d="M527.254,2199.859l-.079.048C527.189,2199.87,527.2,2199.83,527.254,2199.859Z"
            fill="#02445c" />
        <path id="Path_900" data-name="Path 900"
            d="M527.034,2200.006l-.083.051C526.967,2200.021,526.978,2199.977,527.034,2200.006Z"
            fill="#02445c" />
        <path id="Path_901" data-name="Path 901"
            d="M525.051,2201.693a.056.056,0,0,1-.042.042Q524.979,2201.663,525.051,2201.693Z"
            fill="#02445c" />
        <path id="Path_902" data-name="Path 902"
            d="M561.524,2165.346a.059.059,0,0,1-.045.043C561.459,2165.339,561.475,2165.325,561.524,2165.346Z"
            fill="#02445c" />
        <path id="Path_903" data-name="Path 903"
            d="M562.92,2164.165l-.081.053C562.852,2164.179,562.866,2164.143,562.92,2164.165Z"
            fill="#02445c" />
        <path id="Path_904" data-name="Path 904"
            d="M564.093,2163.367l-.084.051C564.026,2163.382,564.037,2163.337,564.093,2163.367Z"
            fill="#02445c" />
        <path id="Path_905" data-name="Path 905"
            d="M546.044,2222.407a.06.06,0,0,1,.042-.044C546.109,2222.413,546.093,2222.426,546.044,2222.407Z"
            fill="#02445c" />
        <path id="Path_906" data-name="Path 906" d="M525.794,2223.09h.059l-.018.052Z"
            fill="#02445c" />
        <path id="Path_907" data-name="Path 907"
            d="M564.46,2163.147l-.085.051C564.392,2163.162,564.4,2163.116,564.46,2163.147Z"
            fill="#02445c" />
        <path id="Path_908" data-name="Path 908"
            d="M583.267,2216.657c-.037-.119.07-.153.13-.215C583.4,2216.541,583.4,2216.641,583.267,2216.657Z"
            fill="#02445c" />
        <path id="Path_909" data-name="Path 909"
            d="M584.065,2213.8c-.1-.044-.1-.091-.005-.141C584.131,2213.705,584.135,2213.752,584.065,2213.8Z"
            fill="#02445c" />
        <path id="Path_910" data-name="Path 910"
            d="M583.778,2214.975c-.009-.06-.029-.123.056-.147C583.946,2214.927,583.875,2214.956,583.778,2214.975Z"
            fill="#02445c" />
        <path id="Path_911" data-name="Path 911" d="M583.045,2217.168c-.02-.053.015-.067.054-.078Z"
            fill="#02445c" />
        <path id="Path_912" data-name="Path 912" d="M582.747,2217.826c-.016-.052.018-.069.058-.081Z"
            fill="#02445c" />
        <path id="Path_913" data-name="Path 913"
            d="M581.657,2183.382c-.02-.1.035-.136.129-.127A.124.124,0,0,1,581.657,2183.382Z"
            fill="#02445c" />
        <path id="Path_914" data-name="Path 914" d="M578.771,2165.739c-.056.023-.07-.018-.086-.056Z"
            fill="#02445c" />
        <path id="Path_915" data-name="Path 915" d="M578.55,2165.59c-.056.027-.068-.016-.085-.053Z"
            fill="#02445c" />
        <path id="Path_916" data-name="Path 916" d="M568.941,2187.981l.1.072Z" fill="#02445c" />
        <path id="Path_917" data-name="Path 917" d="M579.132,2185.866c.013-.038.026-.075.079-.051Z"
            fill="#02445c" />
        <path id="Path_918" data-name="Path 918" d="M579.421,2185.649c.015-.037.029-.076.084-.056Z"
            fill="#02445c" />
        <path id="Path_919" data-name="Path 919"
            d="M564.364,2166.051c.012.053-.005.066-.053.039A.089.089,0,0,1,564.364,2166.051Z"
            fill="#02445c" />
        <path id="Path_920" data-name="Path 920"
            d="M538.346,2200.052l-.083-.017c.011-.056.024-.126.1-.089C538.416,2199.973,538.389,2200.022,538.346,2200.052Z"
            fill="#02445c" />
        <path id="Path_921" data-name="Path 921" d="M542.372,2165.54c-.045-.006-.09-.011-.076-.076Z"
            fill="#02445c" />
    </g>
</svg>
