<svg xmlns="http://www.w3.org/2000/svg" width="16.227" height="16.227" viewBox="0 0 16.227 16.227">
    <path id="gift-2-line"
        d="M12.146,2A2.841,2.841,0,0,1,14.712,6.06H17.42a.811.811,0,0,1,.811.811v3.245a.811.811,0,0,1-.811.811h-.811v6.491a.811.811,0,0,1-.811.811H4.439a.811.811,0,0,1-.811-.811V10.927H2.816A.811.811,0,0,1,2,10.116V6.871a.811.811,0,0,1,.811-.811H5.524a2.84,2.84,0,0,1,4.6-3.2A2.823,2.823,0,0,1,12.146,2Zm2.84,8.925H5.25v5.679h9.736Zm1.623-3.245H3.628V9.3H16.609ZM8.09,3.626a1.217,1.217,0,0,0-.117,2.428l.117.006H9.307V4.843a1.217,1.217,0,0,0-1.1-1.211Zm4.057,0-.117.006a1.217,1.217,0,0,0-1.094,1.094l-.006.117V6.06h1.217l.117-.006a1.217,1.217,0,0,0,0-2.423Z"
        transform="translate(-2.005 -2.003)" fill="#fff" />
</svg>
