
<svg xmlns="http://www.w3.org/2000/svg" version="1.1" width="512" height="512" x="0" y="0"
    viewBox="0 0 682.667 682.667" style="enable-background:new 0 0 512 512" xml:space="preserve">
    <g>
        <defs>
            <clipPath id="a" clipPathUnits="userSpaceOnUse">
                <path d="M0 512h512V0H0Z" fill="#c8c8c8" data-original="#000000" opacity="1">
                </path>
            </clipPath>
        </defs>
        <g clip-path="url(#a)" transform="matrix(1.33333 0 0 -1.33333 0 682.667)">
            <path
                d="M0 0h40.344c22.001 0 40-18 40-40v-320c0-22-17.999-40-40-40H-134.8l-19.149-33.169c-5.002-8.932-18.046-9.231-23.301-.158L-196.492-400h-175.165c-22.001 0-40 18-40 40v320c0 22 17.999 40 40 40h283.615"
                style="stroke-width:20;stroke-linecap:round;stroke-linejoin:round;stroke-miterlimit:22.926;stroke-dasharray:none;stroke-opacity:1"
                transform="translate(421.656 450)" fill="none" stroke="#c8c8c8" stroke-width="20"
                stroke-linecap="round" stroke-linejoin="round" stroke-miterlimit="22.926"
                stroke-dasharray="none" data-original="#000000" opacity="1">
            </path>
            <path
                d="M0 0c-10.449 0-44.458-37.974-44.458-67.191 0-24.193 20.091-44.904 44.458-44.811 24.368-.093 44.458 20.618 44.458 44.811C44.458-37.974 10.449 0 0 0Z"
                style="stroke-width:20;stroke-linecap:round;stroke-linejoin:round;stroke-miterlimit:22.926;stroke-dasharray:none;stroke-opacity:1"
                transform="translate(377.541 502.001)" fill="none" stroke="#c8c8c8"
                stroke-width="20" stroke-linecap="round" stroke-linejoin="round"
                stroke-miterlimit="22.926" stroke-dasharray="none" data-original="#000000"
                opacity="1">
            </path>
            <path d="M0 0a47.626 47.626 0 0 0 67.352 0"
                style="stroke-width:20;stroke-linecap:round;stroke-linejoin:round;stroke-miterlimit:22.926;stroke-dasharray:none;stroke-opacity:1"
                transform="translate(222.324 207.572)" fill="none" stroke="#c8c8c8"
                stroke-width="20" stroke-linecap="round" stroke-linejoin="round"
                stroke-miterlimit="22.926" stroke-dasharray="none" data-original="#000000"
                opacity="1">
            </path>
            <path d="m0 0-30-30"
                style="stroke-width:20;stroke-linecap:round;stroke-linejoin:round;stroke-miterlimit:22.926;stroke-dasharray:none;stroke-opacity:1"
                transform="translate(200.999 295.75)" fill="none" stroke="#c8c8c8" stroke-width="20"
                stroke-linecap="round" stroke-linejoin="round" stroke-miterlimit="22.926"
                stroke-dasharray="none" data-original="#000000" opacity="1">
            </path>
            <path d="m0 0 30-30"
                style="stroke-width:20;stroke-linecap:round;stroke-linejoin:round;stroke-miterlimit:22.926;stroke-dasharray:none;stroke-opacity:1"
                transform="translate(171 295.75)" fill="none" stroke="#c8c8c8" stroke-width="20"
                stroke-linecap="round" stroke-linejoin="round" stroke-miterlimit="22.926"
                stroke-dasharray="none" data-original="#000000" opacity="1">
            </path>
            <path d="m0 0-30-30"
                style="stroke-width:20;stroke-linecap:round;stroke-linejoin:round;stroke-miterlimit:22.926;stroke-dasharray:none;stroke-opacity:1"
                transform="translate(341 295.75)" fill="none" stroke="#c8c8c8" stroke-width="20"
                stroke-linecap="round" stroke-linejoin="round" stroke-miterlimit="22.926"
                stroke-dasharray="none" data-original="#000000" opacity="1">
            </path>
            <path d="m0 0 30-30"
                style="stroke-width:20;stroke-linecap:round;stroke-linejoin:round;stroke-miterlimit:22.926;stroke-dasharray:none;stroke-opacity:1"
                transform="translate(311 295.75)" fill="none" stroke="#c8c8c8" stroke-width="20"
                stroke-linecap="round" stroke-linejoin="round" stroke-miterlimit="22.926"
                stroke-dasharray="none" data-original="#000000" opacity="1">
            </path>
            <path d="M0 0h-160.998v320h288.835m77.603 0h45.563V0H90"
                style="stroke-width:20;stroke-linecap:round;stroke-linejoin:round;stroke-miterlimit:22.926;stroke-dasharray:none;stroke-opacity:1"
                transform="translate(210.997 90)" fill="none" stroke="#c8c8c8" stroke-width="20"
                stroke-linecap="round" stroke-linejoin="round" stroke-miterlimit="22.926"
                stroke-dasharray="none" data-original="#000000" opacity="1">
            </path>
            <path d="M0 0h.007"
                style="stroke-width:20;stroke-linecap:round;stroke-linejoin:round;stroke-miterlimit:2.613;stroke-dasharray:none;stroke-opacity:1"
                transform="translate(255.993 90)" fill="none" stroke="#c8c8c8" stroke-width="20"
                stroke-linecap="round" stroke-linejoin="round" stroke-miterlimit="2.613"
                stroke-dasharray="none" data-original="#000000" opacity="1">
            </path>
        </g>
    </g>
</svg>