<svg xmlns="http://www.w3.org/2000/svg" width="22" height="22" viewBox="0 0 22 22">
    <g id="Group_5468" data-name="Group 5468" transform="translate(-40 -963)">
        <g id="sticky-note-2-fill" transform="translate(40 965.389)">
            <path id="Path_6087" data-name="Path 6087" d="M0,0H20.425V19.611H0Z" fill="none" />
            <path id="Path_6088" data-name="Path 6088"
                d="M18.445,13.567l-4.293,4.064H3.856A.833.833,0,0,1,3,16.824V3.807A.831.831,0,0,1,3.852,3H17.593a.833.833,0,0,1,.852.812Z"
                transform="translate(-0.51 -0.51)" fill="#fde4ac" />
        </g>
        <g id="sticky-note-2-line" transform="translate(40 963)">
            <path id="Path_5828" data-name="Path 5828" d="M0,0H22V21.186H0Z" fill="none" />
            <path id="Path_5829" data-name="Path 5829"
                d="M3.926,18.893A.9.9,0,0,1,3,18.017V3.877A.9.9,0,0,1,3.922,3H18.786a.9.9,0,0,1,.922.882v10.6l-4.644,4.415Zm.93-1.766H14.3l3.556-3.381V4.766H4.856Z"
                transform="translate(-0.354 -0.354)" fill="#f7c044" />
        </g>
    </g>
</svg>
