<svg xmlns="http://www.w3.org/2000/svg" width="23.363" height="24.182" viewBox="0 0 23.363 24.182">
    <g id="Group_4905" data-name="Group 4905" transform="translate(-18.393 -1168.023)">
        <g id="timer-flash-fill" transform="translate(18.393 1170.365)">
            <path id="Path_5730" data-name="Path 5730" d="M0,0H21.84V21.84H0Z" fill="none" />
            <path id="Path_5731" data-name="Path 5731"
                d="M6.078,5.521a8.192,8.192,0,0,1,10.225,0L17.624,4.2l1.287,1.287L17.589,6.808a8.19,8.19,0,1,1-12.8,0L3.469,5.486,4.755,4.2,6.078,5.522ZM12.1,11.01V6.91L7.55,12.83h2.73v4.095l4.55-5.915ZM7.55,1h7.28V2.82H7.55Z"
                transform="translate(-0.27 -0.09)" fill="#fcd39d" />
        </g>
        <g id="Group_4870" data-name="Group 4870" transform="translate(20.244 1168.023)">
            <path id="Path_5695" data-name="Path 5695" d="M0,0H21.511V21.511H0Z"
                transform="translate(0)" fill="none" />
            <path id="Path_5696" data-name="Path 5696"
                d="M6.033,5.454a8.076,8.076,0,0,1,10.077,0l1.3-1.3,1.268,1.268-1.3,1.3a8.07,8.07,0,1,1-12.613,0l-1.3-1.3L4.73,4.152l1.3,1.3Zm5.038,12.58a6.276,6.276,0,1,0-6.278-6.276A6.277,6.277,0,0,0,11.071,18.034ZM7.484,1h7.175V2.793H7.484Z"
                transform="translate(-0.316 -0.105)" fill="#dd681e" />
            <path id="Path_5697" data-name="Path 5697"
                d="M12.474,11.526h2.684l-4.474,5.816V13.315H8L12.474,7.5Z"
                transform="translate(-0.824 -0.767)" fill="#dd681e" />
        </g>
    </g>
</svg>
