<?xml version="1.0" standalone="no"?><!DOCTYPE svg PUBLIC "-//W3C//DTD SVG 20010904//EN"
    "http://www.w3.org/TR/2001/REC-SVG-20010904/DTD/svg10.dtd">
<svg version="1.0" xmlns="http://www.w3.org/2000/svg" width="603.000000pt" height="654.000000pt"
    viewBox="0 0 603.000000 654.000000" preserveAspectRatio="xMidYMid meet">

    <g transform="translate(0.000000,654.000000) scale(0.100000,-0.100000)" fill="#000000"
        stroke="none">
        <path d="M2965 6334 c-66 -14 -131 -43 -895 -396 -343 -159 -870 -421 -870
-432 0 -6 91 -218 203 -470 160 -363 208 -464 230 -480 59 -44 80 -37 624 203
276 121 521 225 545 231 130 30 230 -8 303 -114 78 -114 97 -257 49 -354 -32
-64 -84 -109 -183 -160 -42 -21 -280 -129 -530 -238 -342 -150 -458 -205 -470
-224 -10 -15 -16 -43 -15 -76 1 -44 63 -191 469 -1115 449 -1022 545 -1233
603 -1323 138 -216 302 -353 462 -387 213 -46 510 74 652 262 125 166 142 397
49 670 -16 46 -85 212 -154 369 -142 326 -157 368 -157 459 0 119 66 212 189
269 65 30 170 41 224 23 91 -30 183 -140 253 -302 214 -495 323 -894 324
-1179 0 -115 -12 -194 -46 -301 -14 -45 -24 -83 -21 -85 9 -9 549 246 598 282
137 100 242 288 290 519 17 81 21 206 41 1210 24 1223 22 1284 -27 1432 -30
88 -79 168 -139 226 -24 23 -439 312 -922 641 -483 330 -922 630 -974 666
-115 82 -214 133 -312 161 -98 28 -295 35 -393 13z" />
        <path d="M561 5059 c-22 -46 -49 -122 -60 -169 -33 -134 -285 -2214 -283
-2335 2 -207 97 -432 239 -567 97 -93 1826 -1514 1883 -1548 36 -21 108 -54
160 -72 92 -31 101 -33 255 -33 141 0 169 3 238 24 70 22 106 41 77 41 -25 0
-159 75 -228 127 -171 131 -357 392 -522 735 -37 79 -273 611 -524 1183 -512
1168 -485 1115 -585 1115 -36 0 -77 -11 -138 -37 -76 -32 -99 -37 -169 -37
-73 -1 -87 2 -150 34 -120 61 -182 173 -171 309 11 144 71 220 234 297 87 41
117 61 134 86 37 60 26 97 -161 523 -95 215 -176 394 -180 399 -5 4 -26 -29
-49 -75z" />
    </g>
</svg>
